<svg width="256" height="51" viewBox="0 0 256 51" fill="none" xmlns="http://www.w3.org/2000/svg">
<path fill-rule="evenodd" clip-rule="evenodd" d="M147.072 0.758789L137.454 50.2132H187.472L197.09 0.758789H147.072ZM155.134 10.2133H186.182L180.139 40.7587H149.091L155.134 10.2133Z" fill="#F3652B"/>
<path fill-rule="evenodd" clip-rule="evenodd" d="M128.001 0.758789L118.546 50.2132H127.999L137.455 0.758789H128.001Z" fill="#F3652B"/>
<path fill-rule="evenodd" clip-rule="evenodd" d="M52.2956 0.758789L1.40383 42.9507L0 50.2132H7.3321L46.7541 17.5471L40.4 50.2132H50.0164L59.6363 0.758789H52.2956Z" fill="#F3652B"/>
<path fill-rule="evenodd" clip-rule="evenodd" d="M246.428 0.758789L242.181 22.575L249.912 32.0315L256 0.758789H246.428ZM205.926 0.758789L196.363 50.2132H205.93L212.484 16.3103L240.111 50.2132H246.091L247.272 44.159L211.906 0.758789H205.926Z" fill="#F3652B"/>
<path fill-rule="evenodd" clip-rule="evenodd" d="M69.2543 0.758789L67.4368 10.1028H100.652L61.0589 42.9322L59.6357 50.2132H109.653L111.471 40.8692H78.2558L117.858 8.0326L119.272 0.758789H69.2543Z" fill="#F3652B"/>
</svg>
